<?xml version="1.0" encoding="UTF-8" standalone="no"?>
<svg
   xmlns:dc="http://purl.org/dc/elements/1.1/"
   xmlns:cc="http://creativecommons.org/ns#"
   xmlns:rdf="http://www.w3.org/1999/02/22-rdf-syntax-ns#"
   xmlns:svg="http://www.w3.org/2000/svg"
   xmlns="http://www.w3.org/2000/svg"
   viewBox="0 0 545.56 82.68"
   height="82.68"
   width="545.56"
   xml:space="preserve"
   id="svg2"
   version="1.1"><metadata
     id="metadata8"><rdf:RDF><cc:Work
         rdf:about=""><dc:format>image/svg+xml</dc:format><dc:type
           rdf:resource="http://purl.org/dc/dcmitype/StillImage" /></cc:Work></rdf:RDF></metadata><defs
     id="defs6"><clipPath
       id="clipPath30"
       clipPathUnits="userSpaceOnUse"><path
         id="path28"
         d="m 3926,231.855 c 0,47.137 -23.57,78.075 -59.67,78.075 -36.82,0 -60.39,-30.938 -60.39,-78.075 0,-47.14 23.57,-78.078 60.39,-78.078 36.1,0 59.67,30.938 59.67,78.078 M 4091.72,578.77 V 32.2539 H 3926 v 40.5078 c -25.78,-30.1953 -61.13,-46.4062 -102.38,-46.4062 -111.95,0 -184.87,82.4995 -184.87,209.9215 0,124.473 70.71,204.758 180.44,204.758 43.46,0 80.29,-16.945 106.81,-47.14 V 578.77 h 165.72 M 3587.24,435.145 V 32.2539 H 3421.52 V 88.2305 C 3395,47.7227 3354.49,24.8906 3302.93,24.8906 c -82.5,0 -140.68,60.3907 -140.68,153.1954 v 257.059 h 165.72 v -209.18 c 0,-33.887 17.68,-55.242 44.19,-55.242 30.21,0 49.36,25.781 49.36,64.812 v 199.61 h 165.72 M 2833.8,231.855 c 0,-47.14 23.57,-78.078 60.39,-78.078 36.84,0 60.4,30.938 60.4,78.078 0,47.137 -23.56,78.075 -60.4,78.075 -36.82,0 -60.39,-30.938 -60.39,-78.075 m 287.99,2.208 c 0,-125.95 -89.12,-207.7075 -227.6,-207.7075 -138.46,0 -227.58,81.7575 -227.58,207.7075 0,125.945 89.12,206.972 227.58,206.972 138.48,0 227.6,-81.027 227.6,-206.972 M 2611.4,578.77 V 32.2539 H 2445.69 V 578.77 H 2611.4 M 2219.61,306.98 c -32.4,0 -53.03,-29.46 -53.03,-74.382 0,-45.676 20.63,-75.137 53.03,-75.137 23.57,0 40.51,13.262 49.35,43.457 l 134.05,-61.867 C 2373.55,67.6055 2302.84,26.3555 2210.78,26.3555 c -128.16,0 -211.39,81.0275 -211.39,205.4995 0,126.688 83.96,209.18 212.86,209.18 87.65,0 157.62,-42.726 190.76,-116.379 L 2271.17,268.68 c -10.31,24.308 -27.99,38.3 -51.56,38.3" /></clipPath></defs><g
     transform="matrix(1.3333333,0,0,-1.3333333,0,82.68)"
     id="g10"><g
       transform="scale(0.1)"
       id="g12"><path
         id="path14"
         style="fill:#ffffff;fill-opacity:1;fill-rule:nonzero;stroke:none"
         d="M 681.555,277.547 V 37.7734 H 623.828 V 262.754 c 0,70.293 -40.699,111.738 -108.047,111.738 C 435.117,372.273 388.496,313.809 388.496,229.453 V 37.7734 H 330.027 V 262.754 c 0,70.293 -39.961,111.738 -108.047,111.738 C 142.055,372.273 93.957,313.809 93.957,229.453 V 37.7734 H 36.9688 V 427.039 H 93.957 v -88.066 c 25.898,60.683 78.441,89.543 148.746,90.285 73.266,0 123.59,-37.004 139.871,-101.387 24.422,68.086 79.184,100.645 153.93,101.387 91.023,0 145.051,-56.985 145.051,-151.711" /><path
         id="path16"
         style="fill:#ffffff;fill-opacity:1;fill-rule:nonzero;stroke:none"
         d="m 1083.7,256.836 c -3.7,75.477 -54.02,124.316 -130.247,124.316 -74.742,0 -128.027,-48.839 -136.168,-124.316 z m 51.81,-45.891 H 817.285 c 9.617,-76.961 65.121,-127.2927 141.348,-127.2927 48.107,0 90.287,17.7617 120.627,49.5897 l 31.82,-33.3006 c -37,-40.7031 -91.76,-64.3945 -156.885,-64.3945 -114.707,0 -193.89,80.6721 -193.89,196.8551 0,116.192 79.922,196.114 193.148,196.856 125.807,0 187.977,-86.582 182.057,-218.313" /><path
         id="path18"
         style="fill:#ffffff;fill-opacity:1;fill-rule:nonzero;stroke:none"
         d="m 1344.55,381.152 c -43.67,0 -76.97,-15.539 -76.97,-52.539 0,-88.066 217.58,-42.929 217.58,-182.793 0,-76.2302 -68.09,-110.2731 -142.83,-110.2731 -55.5,0 -112.49,19.2461 -149.49,54.7656 l 22.2,42.1875 c 33.3,-31.086 83.62,-49.5898 129.51,-49.5898 45.88,0 82.88,17.7738 83.62,56.9918 2.23,94.727 -216.09,46.621 -215.35,184.278 0,74.004 64.38,105.82 135.43,105.82 46.62,0 91.76,-14.062 124.33,-35.527 l -22.2,-44.395 c -30.35,19.238 -69.57,31.074 -105.83,31.074" /><path
         id="path20"
         style="fill:#ffffff;fill-opacity:1;fill-rule:nonzero;stroke:none"
         d="M 1921,277.547 V 37.7734 h -57.73 V 262.754 c 0,69.559 -41.44,110.996 -110.27,110.996 -82.88,-0.734 -131.73,-59.941 -131.73,-145.039 V 37.7734 h -57.72 V 586.895 h 57.72 V 339.707 c 26.65,60.691 79.93,88.809 151.71,89.551 93.25,0 148.02,-56.985 148.02,-151.711" /><path
         id="path22"
         style="fill:#ffffff;fill-opacity:1;fill-rule:nonzero;stroke:none"
         d="m 3926,231.855 c 0,47.137 -23.57,78.075 -59.67,78.075 -36.82,0 -60.39,-30.938 -60.39,-78.075 0,-47.14 23.57,-78.078 60.39,-78.078 36.1,0 59.67,30.938 59.67,78.078 M 4091.72,578.77 V 32.2539 H 3926 v 40.5078 c -25.78,-30.1953 -61.13,-46.4062 -102.38,-46.4062 -111.95,0 -184.87,82.4995 -184.87,209.9215 0,124.473 70.71,204.758 180.44,204.758 43.46,0 80.29,-16.945 106.81,-47.14 V 578.77 h 165.72 M 3587.24,435.145 V 32.2539 H 3421.52 V 88.2305 C 3395,47.7227 3354.49,24.8906 3302.93,24.8906 c -82.5,0 -140.68,60.3907 -140.68,153.1954 v 257.059 h 165.72 v -209.18 c 0,-33.887 17.68,-55.242 44.19,-55.242 30.21,0 49.36,25.781 49.36,64.812 v 199.61 h 165.72 M 2833.8,231.855 c 0,-47.14 23.57,-78.078 60.39,-78.078 36.84,0 60.4,30.938 60.4,78.078 0,47.137 -23.56,78.075 -60.4,78.075 -36.82,0 -60.39,-30.938 -60.39,-78.075 m 287.99,2.208 c 0,-125.95 -89.12,-207.7075 -227.6,-207.7075 -138.46,0 -227.58,81.7575 -227.58,207.7075 0,125.945 89.12,206.972 227.58,206.972 138.48,0 227.6,-81.027 227.6,-206.972 M 2611.4,578.77 V 32.2539 H 2445.69 V 578.77 H 2611.4 M 2219.61,306.98 c -32.4,0 -53.03,-29.46 -53.03,-74.382 0,-45.676 20.63,-75.137 53.03,-75.137 23.57,0 40.51,13.262 49.35,43.457 l 134.05,-61.867 C 2373.55,67.6055 2302.84,26.3555 2210.78,26.3555 c -128.16,0 -211.39,81.0275 -211.39,205.4995 0,126.688 83.96,209.18 212.86,209.18 87.65,0 157.62,-42.726 190.76,-116.379 L 2271.17,268.68 c -10.31,24.308 -27.99,38.3 -51.56,38.3" /><g
         id="g24"><g
           clip-path="url(#clipPath30)"
           id="g26"><path
             id="path32"
             style="fill:#ffffff;fill-opacity:1;fill-rule:nonzero;stroke:none"
             d="M 2611.4,578.77 H 2487.64 L 2611.4,167.898 V 578.77 m 272.14,-137.903 c -132.36,-4.062 -216.93,-84.121 -216.93,-206.804 0,-36.368 7.43,-69.055 21.33,-97.149 l 195.6,303.953" /><path
             id="path34"
             style="fill:#ffffff;fill-opacity:1;fill-rule:nonzero;stroke:none"
             d="m 2212.25,441.035 c -128.9,0 -212.86,-82.492 -212.86,-209.18 0,-107.277 61.82,-182.2769 160.93,-200.9566 l 45.15,128.6216 c -24.14,7.433 -38.89,34.464 -38.89,73.078 0,44.922 20.63,74.382 53.03,74.382 12.99,0 24.19,-4.246 33.35,-12.128 l 45.74,130.293 c -25.97,10.41 -55.08,15.89 -86.45,15.89" /><path
             id="path36"
             style="fill:#ffffff;fill-opacity:1;fill-rule:nonzero;stroke:none"
             d="m 2487.64,578.77 h -41.95 V 32.2539 H 2611.4 V 167.898 L 2487.64,578.77 M 2298.7,425.145 2252.96,294.852 c 7.47,-6.426 13.58,-15.254 18.21,-26.172 l 131.84,55.976 c -21.28,47.285 -57.74,81.828 -104.31,100.489 m -29.74,-224.227 c -8.84,-30.195 -25.78,-43.457 -49.35,-43.457 -5.01,0 -9.73,0.703 -14.14,2.059 L 2160.32,30.8984 c 15.9,-3 32.75,-4.5429 50.46,-4.5429 92.06,0 162.77,41.25 192.23,112.6955 l -134.05,61.867" /><path
             id="path38"
             style="fill:#ffffff;fill-opacity:1;fill-rule:nonzero;stroke:none"
             d="m 2894.19,441.035 c -3.58,0 -7.13,-0.058 -10.65,-0.168 l -195.6,-303.953 c 34.25,-69.1992 107.77,-110.5585 206.25,-110.5585 79.62,0 142.93,27.0312 182.36,73.9455 l -67.94,317.969 c -32.47,14.804 -71.02,22.765 -114.42,22.765 m 0,-287.258 c -36.82,0 -60.39,30.938 -60.39,78.078 0,47.137 23.57,78.075 60.39,78.075 36.84,0 60.4,-30.938 60.4,-78.075 0,-47.14 -23.56,-78.078 -60.4,-78.078" /><path
             id="path40"
             style="fill:#ffffff;fill-opacity:1;fill-rule:nonzero;stroke:none"
             d="M 4091.72,552.469 3926,427.168 v -33.273 c -6.01,6.847 -12.56,13.007 -19.59,18.457 L 3639.76,210.723 c 9.17,-112.7855 79.58,-184.3675 183.86,-184.3675 27.55,0 52.47,7.2265 73.67,21.0273 l 194.43,489.0232 v 16.063 M 3866.33,153.777 c -36.82,0 -60.39,30.938 -60.39,78.078 0,47.137 23.57,78.075 60.39,78.075 36.1,0 59.67,-30.938 59.67,-78.075 0,-47.14 -23.57,-78.078 -59.67,-78.078 M 3587.24,171.016 3421.52,45.7031 V 32.2539 h 165.72 V 171.016" /><path
             id="path42"
             style="fill:#ffffff;fill-opacity:1;fill-rule:nonzero;stroke:none"
             d="M 4091.72,578.77 H 3926 V 427.168 l 165.72,125.301 V 578.77 M 3819.19,441.035 c -109.73,0 -180.44,-80.285 -180.44,-204.758 0,-8.738 0.34,-17.254 1.01,-25.554 l 266.65,201.629 c -23.98,18.546 -53.62,28.683 -87.22,28.683 m -231.95,-5.89 h -165.72 v -199.61 c 0,-39.031 -19.15,-64.812 -49.36,-64.812 -26.51,0 -44.19,21.355 -44.19,55.242 v 209.18 h -15.82 l -4.47,-410.1958 c 49.3,1.3672 88.14,24.0235 113.84,63.2813 V 45.7031 l 165.72,125.3129 v 264.129" /><path
             id="path44"
             style="fill:#ffffff;fill-opacity:1;fill-rule:nonzero;stroke:none"
             d="m 3312.15,435.145 h -149.9 V 178.086 c 0,-92.8047 58.18,-153.1954 140.68,-153.1954 1.6,0 3.18,0.0196 4.75,0.0586 l 4.47,410.1958 m -303.54,-16.875 67.94,-317.969 c 29.15,34.687 45.24,80.226 45.24,133.762 0,86.484 -42.01,151.777 -113.18,184.207" /><path
             id="path46"
             style="fill:#ffffff;fill-opacity:1;fill-rule:nonzero;stroke:none"
             d="M 4091.72,536.406 3897.29,47.3828 c 10.53,6.8633 20.15,15.3516 28.71,25.3789 V 32.2539 h 165.72 V 536.406" /></g></g></g></g></svg>