<?xml version="1.0" encoding="utf-8"?>
<!-- Generator: Adobe Illustrator 21.0.1, SVG Export Plug-In . SVG Version: 6.00 Build 0)  -->
<svg version="1.1" id="Ebene_1" xmlns="http://www.w3.org/2000/svg" xmlns:xlink="http://www.w3.org/1999/xlink" x="0px" y="0px"
	 viewBox="0 0 409.2 61.5" style="enable-background:new 0 0 409.2 61.5;" xml:space="preserve">
<style type="text/css">
	.st0{clip-path:url(#SVGID_2_);}
	.st1{opacity:0.74;fill:#408FCD;}
	.st2{opacity:0.74;fill:#5DBEBF;}
	.st3{opacity:0.74;fill:#1AB9DE;}
	.st4{opacity:0.67;fill:#408FCD;}
	.st5{opacity:0.86;fill:#7B89C3;}
	.st6{fill:#010000;}
	.st7{clip-path:url(#SVGID_4_);fill:#71ACDA;}
	.st8{clip-path:url(#SVGID_4_);fill:#87CFD0;}
	.st9{clip-path:url(#SVGID_4_);fill:#62B9C6;}
	.st10{clip-path:url(#SVGID_4_);fill:#31B5DD;}
	.st11{clip-path:url(#SVGID_4_);fill:#7FB4DD;}
	.st12{clip-path:url(#SVGID_4_);fill:#47A3D6;}
	.st13{clip-path:url(#SVGID_4_);fill:#3C9BD2;}
	.st14{clip-path:url(#SVGID_4_);fill:#7B90C7;}
</style>
<g>
	<defs>
		<path id="SVGID_1_" d="M222,31.3c-3.2,0-5.3,2.9-5.3,7.4c0,4.6,2.1,7.5,5.3,7.5c2.4,0,4.1-1.3,4.9-4.3l13.4,6.2
			c-2.9,7.1-10,11.3-19.2,11.3c-12.8,0-21.1-8.1-21.1-20.5c0-12.7,8.4-20.9,21.3-20.9c8.8,0,15.8,4.3,19.1,11.6l-13.2,5.6
			C226.1,32.7,224.3,31.3,222,31.3z M261.1,4.1v54.7h-16.6V4.1H261.1z M312.2,38.6c0,12.6-8.9,20.8-22.8,20.8
			c-13.8,0-22.8-8.2-22.8-20.8s8.9-20.7,22.8-20.7C303.3,17.9,312.2,26,312.2,38.6z M283.4,38.8c0,4.7,2.4,7.8,6,7.8
			c3.7,0,6-3.1,6-7.8s-2.4-7.8-6-7.8C285.7,31,283.4,34.1,283.4,38.8z M358.7,18.5v40.3h-16.6v-5.6c-2.7,4.1-6.7,6.3-11.9,6.3
			c-8.3,0-14.1-6-14.1-15.3V18.5h16.6v20.9c0,3.4,1.8,5.5,4.4,5.5c3,0,4.9-2.6,4.9-6.5v-20H358.7z M409.2,4.1v54.7h-16.6v-4.1
			c-2.6,3-6.1,4.6-10.2,4.6c-11.2,0-18.5-8.2-18.5-21c0-12.4,7.1-20.5,18-20.5c4.3,0,8,1.7,10.7,4.7V4.1H409.2z M392.6,38.8
			c0-4.7-2.4-7.8-6-7.8c-3.7,0-6,3.1-6,7.8s2.4,7.8,6,7.8C390.2,46.6,392.6,43.5,392.6,38.8z"/>
	</defs>
	<clipPath id="SVGID_2_">
		<use xlink:href="#SVGID_1_"  style="overflow:visible;"/>
	</clipPath>
	<g class="st0">
		<polygon class="st1" points="334.5,-278.5 197.2,112.5 329.8,147.1 		"/>
		<polygon class="st2" points="44.8,-168.8 326.5,262.1 236.7,-35.9 		"/>
		<polygon class="st3" points="397.9,-152.4 187.8,174.1 421.3,-2.4 		"/>
		<polygon class="st4" points="269.8,-125.3 356.1,278.5 548.6,19.7 		"/>
		<polygon class="st5" points="437.1,-61.8 540.4,31.2 369.8,107.3 		"/>
	</g>
</g>
<g>
	<path class="st6" d="M68.2,34.3v24h-5.8V35.7c0-7-4.1-11.2-10.8-11.2c-8.1,0.2-12.7,6.1-12.7,14.5v19.2H33V35.7
		c0-7-4-11.2-10.8-11.2c-8,0.2-12.8,6.1-12.8,14.5v19.2H3.7V19.3h5.7v8.8c2.6-6.1,7.8-9,14.9-9c7.3,0,12.4,3.7,14,10.1
		c2.4-6.8,7.9-10.1,15.4-10.1C62.8,19.1,68.2,24.8,68.2,34.3z"/>
	<path class="st6" d="M113.6,40.9H81.7c1,7.7,6.5,12.7,14.1,12.7c4.8,0,9-1.8,12.1-5l3.2,3.3c-3.7,4.1-9.2,6.4-15.7,6.4
		C83.9,58.5,76,50.4,76,38.8s8-19.6,19.3-19.7C107.9,19.1,114.1,27.7,113.6,40.9z M108.4,36.3c-0.4-7.5-5.4-12.4-13-12.4
		c-7.5,0-12.8,4.9-13.6,12.4H108.4z"/>
	<path class="st6" d="M134.5,23.9c-4.4,0-7.7,1.6-7.7,5.3c0,8.8,21.8,4.3,21.8,18.3c0,7.6-6.8,11-14.3,11c-5.6,0-11.2-1.9-14.9-5.5
		l2.2-4.2c3.3,3.1,8.4,5,13,5s8.3-1.8,8.4-5.7c0.2-9.5-21.6-4.7-21.5-18.4c0-7.4,6.4-10.6,13.5-10.6c4.7,0,9.2,1.4,12.4,3.6L145,27
		C142,25.1,138.1,23.9,134.5,23.9z"/>
	<path class="st6" d="M192.1,34.3v24h-5.8V35.7c0-7-4.1-11.1-11-11.1c-8.3,0.1-13.2,6-13.2,14.5v19.1h-5.8V3.3h5.8V28
		c2.7-6.1,8-8.9,15.2-9C186.6,19.1,192.1,24.8,192.1,34.3z"/>
	<g>
		<g>
			<defs>
				<path id="SVGID_3_" d="M222,31.3c-3.2,0-5.3,2.9-5.3,7.4c0,4.6,2.1,7.5,5.3,7.5c2.4,0,4.1-1.3,4.9-4.3l13.4,6.2
					c-2.9,7.1-10,11.3-19.2,11.3c-12.8,0-21.1-8.1-21.1-20.5c0-12.7,8.4-20.9,21.3-20.9c8.8,0,15.8,4.3,19.1,11.6l-13.2,5.6
					C226.1,32.7,224.3,31.3,222,31.3 M261.1,4.1v54.7h-16.6V4.1H261.1 M312.2,38.6c0,12.6-8.9,20.8-22.8,20.8
					c-13.8,0-22.8-8.2-22.8-20.8c0-12.6,8.9-20.7,22.8-20.7C303.3,17.9,312.2,26,312.2,38.6 M283.4,38.8c0,4.7,2.4,7.8,6,7.8
					c3.7,0,6-3.1,6-7.8c0-4.7-2.4-7.8-6-7.8C285.7,31,283.4,34.1,283.4,38.8 M358.7,18.5v40.3h-16.6v-5.6c-2.7,4.1-6.7,6.3-11.9,6.3
					c-8.3,0-14.1-6-14.1-15.3V18.5h16.6v20.9c0,3.4,1.8,5.5,4.4,5.5c3,0,4.9-2.6,4.9-6.5v-20H358.7 M409.2,4.1v54.7h-16.6v-4.1
					c-2.6,3-6.1,4.6-10.2,4.6c-11.2,0-18.5-8.2-18.5-21c0-12.4,7.1-20.5,18-20.5c4.3,0,8,1.7,10.7,4.7V4.1H409.2 M392.6,38.8
					c0-4.7-2.4-7.8-6-7.8c-3.7,0-6,3.1-6,7.8c0,4.7,2.4,7.8,6,7.8C390.2,46.6,392.6,43.5,392.6,38.8"/>
			</defs>
			<clipPath id="SVGID_4_">
				<use xlink:href="#SVGID_3_"  style="overflow:visible;"/>
			</clipPath>
			<path class="st7" d="M288.4,17.9c-13.2,0.4-21.7,8.4-21.7,20.7c0,3.6,0.7,6.9,2.1,9.7L288.4,17.9 M261.1,4.1h-12.4l12.4,41.1V4.1
				"/>
			<path class="st8" d="M221.2,17.9c-12.9,0-21.3,8.2-21.3,20.9c0,10.7,6.2,18.2,16.1,20.1l4.5-12.9c-2.4-0.7-3.9-3.4-3.9-7.3
				c0-4.5,2.1-7.4,5.3-7.4c1.3,0,2.4,0.4,3.3,1.2l4.6-13C227.3,18.5,224.4,17.9,221.2,17.9"/>
			<path class="st9" d="M226.9,41.9c-0.9,3-2.6,4.3-4.9,4.3c-0.5,0-1-0.1-1.4-0.2L216,58.9c1.6,0.3,3.3,0.5,5,0.5
				c9.2,0,16.3-4.1,19.2-11.3L226.9,41.9 M229.9,19.5l-4.6,13c0.7,0.6,1.4,1.5,1.8,2.6l13.2-5.6C238.2,24.8,234.5,21.4,229.9,19.5
				 M248.8,4.1h-4.2v54.7h16.6V45.2L248.8,4.1"/>
			<path class="st10" d="M289.4,46.6c-3.7,0-6-3.1-6-7.8c0-4.7,2.4-7.8,6-7.8c3.7,0,6,3.1,6,7.8C295.5,43.5,293.1,46.6,289.4,46.6
				 M289.4,17.9c-0.4,0-0.7,0-1.1,0l-19.6,30.4c3.4,6.9,10.8,11.1,20.6,11.1c8,0,14.3-2.7,18.2-7.4l-6.8-31.8
				C297.6,18.7,293.8,17.9,289.4,17.9"/>
			<path class="st11" d="M358.7,44.9l-16.6,12.5v1.3h16.6V44.9 M386.6,46.6c-3.7,0-6-3.1-6-7.8c0-4.7,2.4-7.8,6-7.8
				c3.6,0,6,3.1,6,7.8C392.6,43.5,390.2,46.6,386.6,46.6 M409.2,6.8l-16.6,12.5v3.3c-0.6-0.7-1.3-1.3-2-1.8L364,40.9
				c0.9,11.3,8,18.4,18.4,18.4c2.8,0,5.2-0.7,7.4-2.1l19.4-48.9V6.8"/>
			<path class="st12" d="M358.7,18.5h-16.6v20c0,3.9-1.9,6.5-4.9,6.5c-2.7,0-4.4-2.1-4.4-5.5V18.5h-1.6l-0.4,41
				c4.9-0.1,8.8-2.4,11.4-6.3v4.3l16.6-12.5V18.5 M381.9,17.9c-11,0-18,8-18,20.5c0,0.9,0,1.7,0.1,2.6l26.7-20.2
				C388.2,18.9,385.3,17.9,381.9,17.9 M409.2,4.1h-16.6v15.2l16.6-12.5V4.1"/>
			<path class="st13" d="M300.9,20.2l6.8,31.8c2.9-3.5,4.5-8,4.5-13.4C312.2,30,308,23.4,300.9,20.2 M331.2,18.5h-15v25.7
				c0,9.3,5.8,15.3,14.1,15.3c0.2,0,0.3,0,0.5,0L331.2,18.5"/>
			<path class="st14" d="M409.2,8.4l-19.4,48.9c1.1-0.7,2-1.5,2.9-2.5v4.1h16.6V8.4"/>
		</g>
	</g>
</g>
</svg>
